<svg xmlns="http://www.w3.org/2000/svg" width="16.784" height="16.717" viewBox="0 0 16.784 16.717">
  <g id="Facebook" transform="translate(0 0)">
    <path id="Path_4" data-name="Path 4" d="M101.577,51.479H102c.02.021.046.011.069.012a7.8,7.8,0,0,1,1.577.2,8.315,8.315,0,0,1,5.143,3.561,8.089,8.089,0,0,1,1.234,3.016,7.156,7.156,0,0,1,.14,1.2c0,.239,0,.477,0,.716-.009.112-.008.225-.016.337a8.172,8.172,0,0,1-.224,1.38,8.387,8.387,0,0,1-7.027,6.282c-.116.015-.094.008-.094-.087q0-2.782,0-5.563c0-.019,0-.038,0-.056s.012-.044.043-.043h2.117c.021,0,.043,0,.064,0s.047-.015.053-.046.015-.079.022-.119l.384-2.087c.019-.1.037-.205.055-.307a.213.213,0,0,0-.1-.01h-2.56c-.081,0-.077,0-.077-.073,0-.319,0-.639,0-.958a2.821,2.821,0,0,1,.094-.708,1.249,1.249,0,0,1,.858-.913,2.48,2.48,0,0,1,.511-.1,7.372,7.372,0,0,1,.82-.018c.183,0,.365.011.546.023.03,0,.047,0,.045-.037,0-.014,0-.027,0-.04q0-1.083,0-2.166c0-.08,0-.08-.08-.1a6.773,6.773,0,0,0-.762-.123,9,9,0,0,0-.971-.067,7.214,7.214,0,0,0-.827.043,4.808,4.808,0,0,0-1.113.245,3.019,3.019,0,0,0-1.238.8,3.147,3.147,0,0,0-.641,1.1,5.562,5.562,0,0,0-.287,1.73c-.01.432,0,.864-.005,1.3,0,.07,0,.07-.07.071h-1.57c-.087,0-.087-.012-.087.087v2.375c0,.019,0,.038,0,.056,0,.039.015.054.053.05.019,0,.037,0,.056,0h1.506c.021,0,.043,0,.064,0,.04,0,.053.016.049.053,0,.013,0,.027,0,.04q0,2.7,0,5.394a.169.169,0,0,1-.007.079.217.217,0,0,1-.079-.013,8.407,8.407,0,0,1-5.846-5.468,8.093,8.093,0,0,1-.383-1.789c-.014-.144-.025-.288-.037-.432a.769.769,0,0,0-.025-.226v-.419a.654.654,0,0,0,.028-.22,8.376,8.376,0,0,1,.1-.919,8.133,8.133,0,0,1,.827-2.5,8.348,8.348,0,0,1,3.731-3.665,8.129,8.129,0,0,1,2.308-.75,8.238,8.238,0,0,1,1.136-.114c.023,0,.049.007.069-.012" transform="translate(-93.381 -51.479)" fill="#fff"/>
  </g>
</svg>
