<svg xmlns="http://www.w3.org/2000/svg" width="15.666" height="15.653" viewBox="0 0 15.666 15.653">
  <g id="Instagram_Icon" data-name="Instagram Icon" transform="translate(0 0)">
    <path id="Path_673" data-name="Path 673" d="M97.511,230.127h7.4a.835.835,0,0,0,.362.067,4.233,4.233,0,0,1,3,1.829,4.74,4.74,0,0,1,.778,2.774q0,2.269,0,4.538c0,.681.007,1.362-.008,2.042a4.431,4.431,0,0,1-1.008,2.868,4.328,4.328,0,0,1-3.406,1.522c-2.175.024-4.351.008-6.527.008-.244,0-.488-.009-.731-.033a4.275,4.275,0,0,1-3.889-3.662,2.61,2.61,0,0,0-.1-.6V241.3c.054-.032.027-.084.027-.126q0-3.244,0-6.489c0-.042.028-.094-.027-.125v-.14a2.877,2.877,0,0,0,.1-.623,4.16,4.16,0,0,1,3.352-3.544,4.221,4.221,0,0,0,.671-.129m3.722,14.2c.989,0,1.978,0,2.967,0a6.643,6.643,0,0,0,.714-.028,2.877,2.877,0,0,0,2.429-1.6,3.407,3.407,0,0,0,.326-1.555q0-3.116,0-6.231a4.728,4.728,0,0,0-.034-.679,2.9,2.9,0,0,0-1.312-2.178,3.161,3.161,0,0,0-1.71-.461q-3.316-.006-6.632,0a3.9,3.9,0,0,0-.556.038,2.722,2.722,0,0,0-2.275,1.614,3.652,3.652,0,0,0-.286,1.513q0,3.185,0,6.371a4.426,4.426,0,0,0,.066.8,2.672,2.672,0,0,0,1.776,2.184,3.828,3.828,0,0,0,1.334.219q1.6,0,3.194,0" transform="translate(-93.391 -230.127)" fill="#fff"/>
    <path id="Path_676" data-name="Path 676" d="M114.077,246.644a4.034,4.034,0,1,1-4.027-4.033,4.04,4.04,0,0,1,4.027,4.033m-4.033,2.582a2.585,2.585,0,1,0-2.582-2.582,2.6,2.6,0,0,0,2.582,2.582" transform="translate(-102.201 -238.843)" fill="#fff"/>
    <path id="Path_677" data-name="Path 677" d="M131.157,241.088a.912.912,0,0,1,.031-1.823.912.912,0,1,1-.031,1.823" transform="translate(-119.135 -236.508)" fill="#fff"/>
  </g>
</svg>
