<svg xmlns="http://www.w3.org/2000/svg" width="14.698" height="15.021" viewBox="0 0 14.698 15.021">
  <g id="X_Icon" data-name="X Icon" transform="translate(0 0)">
    <path id="Path_5" data-name="Path 5" d="M93.388,159.558c0-.017.012-.024.021-.034l1.849-2.149,3.77-4.381.008-.008c.026-.034.077-.063.076-.1s-.043-.072-.068-.108l-1.328-1.933-1.389-2.021-1.35-1.964-1.357-1.974-.227-.331-.011-.017h4.337a.065.065,0,0,1,.062.032q.952,1.388,1.907,2.775l1.56,2.27.282.41.025.033.208-.241,3.261-3.79,1.257-1.462a.072.072,0,0,1,.061-.028h1.254a.121.121,0,0,1-.033.046l-3.825,4.445q-.79.918-1.58,1.835a.047.047,0,0,0,0,.07q.817,1.186,1.632,2.374l1.8,2.617,1.835,2.671.648.943s0,.012.013.012,0,.008,0,.008H103.7c-.008-.013-.015-.026-.023-.039l-.8-1.164-1.625-2.365q-.768-1.118-1.536-2.236c-.02-.029-.028-.023-.047,0l-1.948,2.265-2.931,3.407a.962.962,0,0,0-.108.132Zm12.914-.933-.024-.036-2.008-2.872-3.484-4.982-3.63-5.192a.063.063,0,0,0-.059-.03h-1.91c-.012,0-.025,0-.038.005l.021.032,2.424,3.467,3.05,4.361q1.823,2.607,3.645,5.214a.066.066,0,0,0,.062.032H106.3Z" transform="translate(-93.381 -144.537)" fill="#fff"/>
  </g>
</svg>
